<?xml version="1.0" encoding="UTF-8" standalone="no"?>
<svg
   xmlns:dc="http://purl.org/dc/elements/1.1/"
   xmlns:cc="http://creativecommons.org/ns#"
   xmlns:rdf="http://www.w3.org/1999/02/22-rdf-syntax-ns#"
   xmlns:svg="http://www.w3.org/2000/svg"
   xmlns="http://www.w3.org/2000/svg"
   xmlns:xlink="http://www.w3.org/1999/xlink"
   id="svg8"
   version="1.1"
   viewBox="0 0 259.29166 43.920835"
   height="166"
   width="980">
  <defs
     id="defs2">
    <linearGradient
       id="linearGradient4564-5">
      <stop
         style="stop-color:#f8ffa6;stop-opacity:1"
         offset="0"
         id="stop4562" />
      <stop
         id="stop4575"
         offset="0.04891"
         style="stop-color:#ffe54a;stop-opacity:1" />
      <stop
         style="stop-color:#cb4e00;stop-opacity:1"
         offset="0.52445501"
         id="stop4517" />
      <stop
         style="stop-color:#030203;stop-opacity:1"
         offset="1"
         id="stop4560" />
    </linearGradient>
    <radialGradient
       gradientUnits="userSpaceOnUse"
       gradientTransform="matrix(1.3200589,0,0,1.0213981,-41.024158,44.390684)"
       r="129.64583"
       fy="-22.876209"
       fx="134.85753"
       cy="-22.876209"
       cx="134.85753"
       id="radialGradient4568"
       xlink:href="#linearGradient4564-5" />
  </defs>
  <metadata
     id="metadata5">
    <rdf:RDF>
      <cc:Work
         rdf:about="">
        <dc:format>image/svg+xml</dc:format>
        <dc:type
           rdf:resource="http://purl.org/dc/dcmitype/StillImage" />
        <dc:title></dc:title>
      </cc:Work>
    </rdf:RDF>
  </metadata>
  <g
     id="layer3">
    <rect
       y="7.19713e-009"
       x="5.8794358e-006"
       height="43.920834"
       width="259.29166"
       id="rect4558"
       style="opacity:1;vector-effect:none;fill:url(#radialGradient4568);fill-opacity:1;stroke:none;stroke-width:1.26999998;stroke-linecap:butt;stroke-linejoin:miter;stroke-miterlimit:4;stroke-dasharray:none;stroke-dashoffset:0;stroke-opacity:1" />
    <path
       id="path4556"
       d="m 85.559656,22.873358 5.946748,-1.80407 3.140416,-0.167043 0.734992,0.400904 1.302938,-0.200452 0.467722,0.400904 1.102487,-0.167043 1.035669,0.50113 6.826182,-0.21745 2.5041,0.236235 11.83363,0.09241 23.871,1.859911 -0.26727,-2.338605 6.28084,-0.801809 0.80181,0.400904 5.17834,-0.701582 1.67044,0.334087 12.3278,0.267269 14.74909,-0.624494 2.07887,0.330729 4.67745,-0.283482 10.39435,0.04725 4.34673,0.09449 2.3151,-0.377976 2.17336,0.897693 9.92188,-0.188988 16.30022,1.27567 11.48103,0.425223 12.89843,-1.039434 -57.19282,15.44608 L 90.871639,33.76459 Z"
       style="fill:#000000;fill-opacity:1;fill-rule:evenodd;stroke:none;stroke-width:0.26458332px;stroke-linecap:butt;stroke-linejoin:miter;stroke-opacity:1" />
    <path
       id="path4552"
       d="m 65.86235,26.722916 6.614583,-2.929315 2.929316,-0.47247 2.645833,-0.850447 2.740327,-0.661458 1.13393,0.47247 1.41741,-0.47247 4.441219,0.755952 5.575149,0.47247 7.654013,-0.283482 6.33111,0.472471 9.73288,-0.566965 7.55953,-1.41741 8.59896,-0.09449 8.03199,-0.188987 6.52009,0.850446 3.96875,0.94494 3.1183,0.944941 5.55279,1.078546 2.60588,-0.835217 6.88219,0.434313 8.4524,-0.233861 6.24742,-0.133635 h 5.07813 l 3.14041,1.804069 1.67044,-1.202716 18.44159,0.734991 40.29089,5.612663 13.29665,5.879931 -11.77858,15.398117 -269.119045,-2.267857 z"
       style="fill:#4d1111;fill-opacity:1;fill-rule:evenodd;stroke:none;stroke-width:0.26458332px;stroke-linecap:butt;stroke-linejoin:miter;stroke-opacity:1" />
    <path
       id="path4546"
       d="m -5.8586308,30.691666 80.0364568,-6.000372 7.323291,-0.118117 18.426337,0.236235 8.669826,0.425223 7.55953,0.566964 17.31091,0.01172 4.51017,-1.770661 6.34765,-0.23386 8.85331,1.336347 7.85104,0.467722 6.24742,-0.935443 18.00729,0.334086 6.5481,-0.133634 2.6727,-0.26727 18.44159,0.734991 0.66818,-1.00226 3.54132,0.133634 3.4745,0.935444 47.57398,-2.138156 -5.13355,24.426331 -269.0245447,1.889881 z"
       style="fill:#662516;fill-opacity:1;fill-rule:evenodd;stroke:none;stroke-width:0.26458332px;stroke-linecap:butt;stroke-linejoin:miter;stroke-opacity:1" />
    <path
       id="path4544"
       d="M -5.9531249,49.590475 -2.4568452,22.470684 8.4099701,21.242262 h 9.3549109 l 0.755952,-0.661459 12.095239,-0.09449 22.67857,1.700893 4.630208,0.09449 0.944941,0.661459 3.874257,0.188987 0.850444,-0.755952 5.764139,0.755952 4.346726,1.039435 6.614583,1.322917 25.89137,2.645832 14.74107,0.188989 18.04836,2.456845 18.99331,-0.47247 22.58407,1.511904 20.6942,-2.740327 39.593,-3.779761 20.78869,-3.779762 1.41741,26.17485 z"
       style="fill:#712918;fill-opacity:1;fill-rule:evenodd;stroke:none;stroke-width:0.26458332px;stroke-linecap:butt;stroke-linejoin:miter;stroke-opacity:1" />
    <path
       id="path4542"
       d="m -0.66817382,20.935654 2.73951262,0.400904 10.4235112,2.204973 5.144939,-0.267269 11.425772,2.53906 23.75358,3.056894 13.046093,0.267272 7.981863,1.128956 6.614583,1.228421 20.50521,0.8032 18.56808,0.708705 16.20573,2.409598 1.22842,0.755954 3.77976,0.377976 7.70127,0.614212 8.78794,0.803198 15.49703,-0.377976 12.52046,-1.41741 9.11867,-1.086683 9.78014,-1.322917 10.63058,-1.133927 31.6555,-4.630209 13.74889,-2.315104 2.88207,22.017112 -266.8511918,-0.566963 z"
       style="fill:#713518;fill-opacity:1;fill-rule:evenodd;stroke:none;stroke-width:0.26458332px;stroke-linecap:butt;stroke-linejoin:miter;stroke-opacity:1" />
    <path
       id="path4538"
       d="m 52.919365,44.856276 8.418991,-11.225319 0.935442,-2.405428 -1.603615,-1.202711 -7.349914,-1.069078 8.953529,0.668174 3.608139,1.870887 -1.603616,4.543581 -4.009043,9.087165 z"
       style="fill:#72472c;fill-opacity:1;fill-rule:evenodd;stroke:none;stroke-width:0.26458332px;stroke-linecap:butt;stroke-linejoin:miter;stroke-opacity:1" />
    <path
       id="path4540"
       d="M 80.047223,45.390815 72.830946,33.898226 68.688267,30.95826 63.00879,29.521687 l -2.57247,-0.267269 3.307461,0.03341 8.151722,1.23612 4.075859,1.670436 10.089425,8.38558 2.672696,0.53454 0.46772,1.937703 -1.804069,2.138156 z"
       style="fill:#72472c;fill-opacity:1;fill-rule:evenodd;stroke:none;stroke-width:0.26458332px;stroke-linecap:butt;stroke-linejoin:miter;stroke-opacity:1" />
  </g>
  <g
     style="display:inline"
     id="layer2">
    <path
       id="path4498"
       transform="scale(0.26458333)"
       d="M 108.21484,30.642578 84.285156,38.5 72.5,57.427734 73.572266,118.5 92.5,133.5 143.92773,133.14258 158.21484,114.21484 155.08008,89.517578 146.42773,74.214844 118.21484,73.5 l -7.14257,6.785156 2.5,9.642578 22.47851,-1.601562 3.7793,12.917968 -7.48047,15.0957 -26.63477,-3.91211 -9.730465,-26.175777 6.187505,-29.345703 24.47265,-2.421875 2.64063,12.230469 L 157.5,65.285156 151.92578,46.375 137.5,33.857422 Z m 110,1.072266 -19.64257,6.785156 -20.35743,28.214844 14.64258,21.070312 34.28516,1.78711 9.28515,12.142574 -8.92773,15.71289 -18.92773,-2.5 L 194.28516,99.214844 175,106.35742 l 12.85742,13.21485 21.78516,11.07031 30.71484,-1.42774 L 252.5,98.5 245,79.927734 l -14.64258,-4.285156 -23.92969,2.5 -9.28515,-16.427734 8.92969,-10 15.35546,0.357422 7.14454,10.71289 21.07031,3.572266 L 257.85742,53.5 240.71484,35.285156 Z m 213.21289,2.5 -29.64257,1.070312 -20,25.357422 -2.14258,26.785156 17.14258,41.429686 31.42968,2.14258 31.07032,-19.64258 -2.85743,-14.642576 -25.71289,11.070316 -25.35742,1.42968 -8.92969,-34.642574 12.5,-22.144532 23.21485,4.644532 23.92969,8.570312 7.85546,-15.357422 z M 299.28516,34.572266 278.92773,61 278.57227,92.072266 288.92773,117.78516 315,127.42773 l 41.42773,-10.35546 -4.28515,-42.500004 -27.85742,-2.144532 -7.85743,11.78711 14.28711,5.357422 8.92774,6.070312 L 332.5,114.92773 303.21484,106.35742 290,70.285156 l 16.78516,-20.71289 20.71484,0.71289 9.64258,15 20,-5 -12.85742,-20.357422 z M 797.5,46.177734 775.17773,51.357422 c 0,0 -13.89368,18.820311 -15.32226,23.820312 l 16.29101,-7.246093 0.46094,46.996089 -20.89258,0.35743 -11.78711,11.78711 73.21485,4.28515 0.71484,-14.64258 L 793.92773,116 Z m -184.64258,3.03711 -32.14258,15 3.92774,13.21289 L 611.78516,63.5 l 17.5,5.714844 -2.85743,11.070312 -44.28515,23.572264 -3.57031,21.78516 18.21289,4.28515 50.71484,-0.35546 -2.85742,-15 -41.42774,2.5 2.5,-9.28711 43.57032,-25.712894 -2.85743,-20.714844 z m 106.07031,0.357422 -38.21289,0.355468 c 0,0 -13.92828,22.501117 -14.64257,23.929688 l -0.71485,36.785158 17.85742,19.64258 32.85743,0.35742 15,-23.57031 L 735,68.5 Z m 136.42969,0 -19.28515,18.570312 1.07031,13.929688 11.78515,10.355468 38.21485,6.78711 -0.35742,13.212886 -23.57032,3.57227 -9.64257,-10.35742 -13.92969,-2.5 -6.07031,7.5 13.57031,15.35742 32.5,2.5 L 902.5,117.07227 905,67.427734 888.57227,52.072266 Z m 10,10.71289 8.21485,0.714844 12.85546,8.927734 -5,13.929688 -17.14257,0.357422 -8.57032,-10 z m -175,4.28711 20.35742,0.71289 -22.85742,21.429688 z m 21.78516,22.142578 1.42969,24.999996 -14.64454,6.42774 L 689.64258,111 688.92773,101 Z"
       style="fill:#ffd400;fill-opacity:1;fill-rule:evenodd;stroke:#000000;stroke-width:1.602;stroke-linecap:square;stroke-linejoin:bevel;stroke-miterlimit:4;stroke-dasharray:none;stroke-opacity:1" />
  </g>
</svg>
